<?xml version="1.0"?>
<svg xmlns="http://www.w3.org/2000/svg" xmlns:xlink="http://www.w3.org/1999/xlink" xmlns:svgjs="http://svgjs.com/svgjs" version="1.1" width="512" height="512" x="0" y="0" viewBox="0 0 512 512" style="enable-background:new 0 0 512 512" xml:space="preserve" class=""><g>
<g xmlns="http://www.w3.org/2000/svg">
	<g>
		<polygon points="295.423,296.421 215.579,296.421 213.583,296.421 213.583,344.328 297.419,344.328 297.419,296.421   " fill="#051b4e" data-original="#000000" style="" class=""/>
	</g>
</g>
<g xmlns="http://www.w3.org/2000/svg">
	<g>
		<path d="M396.403,193.731C372.578,126,308.237,76.85,231.548,76.85c-96.307,0-174.659,78.352-174.659,174.659    c0,11.322,1.084,22.558,3.233,33.578C25.82,292.349,0,322.865,0,359.298c0,41.825,34.027,75.852,75.852,75.852h315.384    c66.59,0,120.764-54.174,120.764-120.764C512,249.528,460.604,196.447,396.403,193.731z M327.361,359.298    c0,8.268-6.703,14.971-14.971,14.971H198.612c-8.268,0-14.971-6.703-14.971-14.971V281.45c0-8.268,6.703-14.971,14.971-14.971    h1.996v-22.955c0-30.268,24.625-54.893,54.893-54.893s54.893,24.625,54.893,54.893v22.955h1.996    c8.268,0,14.971,6.703,14.971,14.971V359.298z" fill="#051b4e" data-original="#000000" style="" class=""/>
	</g>
</g>
<g xmlns="http://www.w3.org/2000/svg">
	<g>
		<path d="M255.501,218.573c-13.758,0-24.951,11.193-24.951,24.951v22.955h49.903v-22.955    C280.452,229.766,269.259,218.573,255.501,218.573z" fill="#051b4e" data-original="#000000" style="" class=""/>
	</g>
</g>
<g xmlns="http://www.w3.org/2000/svg">
</g>
<g xmlns="http://www.w3.org/2000/svg">
</g>
<g xmlns="http://www.w3.org/2000/svg">
</g>
<g xmlns="http://www.w3.org/2000/svg">
</g>
<g xmlns="http://www.w3.org/2000/svg">
</g>
<g xmlns="http://www.w3.org/2000/svg">
</g>
<g xmlns="http://www.w3.org/2000/svg">
</g>
<g xmlns="http://www.w3.org/2000/svg">
</g>
<g xmlns="http://www.w3.org/2000/svg">
</g>
<g xmlns="http://www.w3.org/2000/svg">
</g>
<g xmlns="http://www.w3.org/2000/svg">
</g>
<g xmlns="http://www.w3.org/2000/svg">
</g>
<g xmlns="http://www.w3.org/2000/svg">
</g>
<g xmlns="http://www.w3.org/2000/svg">
</g>
<g xmlns="http://www.w3.org/2000/svg">
</g>
</g></svg>
